M48
; DRILL file {KiCad 5.1.4-e60b266~84~ubuntu18.04.1} date Sun Jan 12 21:58:37 2020
; FORMAT={-:-/ absolute / inch / decimal}
; #@! TF.CreationDate,2020-01-12T21:58:37+06:00
; #@! TF.GenerationSoftware,Kicad,Pcbnew,5.1.4-e60b266~84~ubuntu18.04.1
; #@! TF.FileFunction,Plated,1,2,PTH
FMAT,2
INCH
T1C0.0157
T2C0.0315
T3C0.0394
T4C0.1181
%
G90
G05
T1
X1.05Y-4.955
X1.08Y-5.1
X1.26Y-4.32
X1.37Y-5.34
X1.6363Y-3.785
X1.64Y-4.145
X1.645Y-4.39
X1.6653Y-5.175
X1.67Y-4.825
X1.815Y-4.535
X1.97Y-4.065
X2.09Y-5.325
X2.13Y-3.91
X2.16Y-4.946
X2.195Y-3.715
X2.2325Y-4.76
X2.28Y-3.27
X2.555Y-4.06
X2.66Y-3.72
X2.67Y-4.79
X2.675Y-4.705
X2.8Y-3.86
X2.8012Y-4.8862
X2.815Y-3.555
X2.985Y-5.045
X2.99Y-4.035
T2
X2.7Y-4.435
X2.8Y-4.435
X2.9Y-4.435
X0.685Y-4.565
X0.785Y-4.565
X0.885Y-4.565
X2.65Y-3.4125
X2.75Y-3.4125
X2.85Y-3.4125
T3
X2.32Y-5.18
X2.29Y-4.1525
X1.23Y-4.81
X1.23Y-4.91
X3.42Y-3.62
X3.42Y-3.72
X3.42Y-3.82
X3.42Y-3.92
X3.42Y-4.02
X3.42Y-4.12
X3.42Y-4.22
X3.42Y-4.32
X3.42Y-4.42
X3.42Y-4.52
X3.42Y-4.62
X3.42Y-4.72
X3.42Y-4.82
X3.42Y-4.92
X3.42Y-5.02
X3.42Y-5.12
X3.42Y-5.22
X3.52Y-3.62
X3.52Y-3.72
X3.52Y-3.82
X3.52Y-3.92
X3.52Y-4.02
X3.52Y-4.12
X3.52Y-4.22
X3.52Y-4.32
X3.52Y-4.42
X3.52Y-4.52
X3.52Y-4.62
X3.52Y-4.72
X3.52Y-4.82
X3.52Y-4.92
X3.52Y-5.02
X3.52Y-5.12
X3.52Y-5.22
X1.2Y-3.8725
X1.2Y-3.9725
X0.73Y-4.31
X0.83Y-4.31
X0.93Y-5.325
X1.8Y-3.325
X1.9Y-3.325
T4
X0.59Y-3.29
X3.56Y-3.29
X0.59Y-5.57
X3.56Y-5.57
T0
M30
